<svg width="966" height="180" viewBox="0 0 966 180" fill="none" xmlns="http://www.w3.org/2000/svg">
<g clip-path="url(#clip0_3_18)">
<rect width="342" height="180" fill="black"/>
<path d="M80.904 75.68C80.904 78.848 80.312 81.616 79.128 83.984C77.944 86.352 76.344 88.352 74.328 89.984C72.312 91.616 70.056 92.928 67.56 93.92L84.984 122H67.176L52.776 96.56H48.312V122H32.568V55.472H53.496C62.552 55.472 69.384 57.12 73.992 60.416C78.6 63.712 80.904 68.8 80.904 75.68ZM64.68 75.68C64.68 72.48 63.736 70.16 61.848 68.72C59.992 67.248 57.224 66.512 53.544 66.512H48.312V85.76H54.168C57.592 85.76 60.2 84.96 61.992 83.36C63.784 81.76 64.68 79.2 64.68 75.68ZM134.195 107.312C134.195 109.232 134.451 110.624 134.963 111.488C135.507 112.352 136.371 113.008 137.555 113.456L134.435 123.44C131.427 123.152 128.883 122.496 126.803 121.472C124.755 120.416 123.139 118.832 121.955 116.72C120.003 119.056 117.507 120.8 114.467 121.952C111.427 123.072 108.323 123.632 105.155 123.632C99.9065 123.632 95.7145 122.144 92.5785 119.168C89.4745 116.16 87.9225 112.304 87.9225 107.6C87.9225 102.064 90.0825 97.792 94.4025 94.784C98.7545 91.776 104.867 90.272 112.739 90.272H119.603V88.352C119.603 85.696 118.739 83.728 117.011 82.448C115.315 81.168 112.819 80.528 109.523 80.528C107.891 80.528 105.795 80.768 103.235 81.248C100.675 81.696 98.1145 82.352 95.5545 83.216L92.0505 73.136C95.3465 71.888 98.7705 70.944 102.323 70.304C105.907 69.664 109.107 69.344 111.923 69.344C119.507 69.344 125.107 70.896 128.723 74C132.371 77.072 134.195 81.52 134.195 87.344V107.312ZM110.387 112.784C112.019 112.784 113.731 112.304 115.523 111.344C117.315 110.352 118.675 108.96 119.603 107.168V98.912H115.859C111.635 98.912 108.531 99.568 106.547 100.88C104.563 102.16 103.571 104.048 103.571 106.544C103.571 108.496 104.163 110.032 105.347 111.152C106.563 112.24 108.243 112.784 110.387 112.784ZM187.485 71.024V107.216C187.485 114.576 186.109 120.624 183.357 125.36C180.637 130.128 176.573 133.904 171.165 136.688C165.789 139.504 159.133 141.696 151.197 143.264L148.797 131.696C153.949 130.512 158.269 129.04 161.757 127.28C165.245 125.52 167.869 123.136 169.629 120.128C171.421 117.088 172.317 113.104 172.317 108.176V81.392H153.981V71.024H187.485ZM177.645 44.336C180.269 44.336 182.413 45.152 184.077 46.784C185.741 48.416 186.573 50.448 186.573 52.88C186.573 55.312 185.741 57.36 184.077 59.024C182.413 60.656 180.269 61.472 177.645 61.472C174.989 61.472 172.813 60.656 171.117 59.024C169.453 57.36 168.621 55.312 168.621 52.88C168.621 50.448 169.453 48.416 171.117 46.784C172.813 45.152 174.989 44.336 177.645 44.336ZM249.32 107.312C249.32 109.232 249.576 110.624 250.088 111.488C250.632 112.352 251.496 113.008 252.68 113.456L249.56 123.44C246.552 123.152 244.008 122.496 241.928 121.472C239.88 120.416 238.264 118.832 237.08 116.72C235.128 119.056 232.632 120.8 229.592 121.952C226.552 123.072 223.448 123.632 220.28 123.632C215.032 123.632 210.84 122.144 207.704 119.168C204.6 116.16 203.048 112.304 203.048 107.6C203.048 102.064 205.208 97.792 209.528 94.784C213.88 91.776 219.992 90.272 227.864 90.272H234.728V88.352C234.728 85.696 233.864 83.728 232.136 82.448C230.44 81.168 227.944 80.528 224.648 80.528C223.016 80.528 220.92 80.768 218.36 81.248C215.8 81.696 213.24 82.352 210.68 83.216L207.176 73.136C210.472 71.888 213.896 70.944 217.448 70.304C221.032 69.664 224.232 69.344 227.048 69.344C234.632 69.344 240.232 70.896 243.848 74C247.496 77.072 249.32 81.52 249.32 87.344V107.312ZM225.512 112.784C227.144 112.784 228.856 112.304 230.648 111.344C232.44 110.352 233.8 108.96 234.728 107.168V98.912H230.984C226.76 98.912 223.656 99.568 221.672 100.88C219.688 102.16 218.696 104.048 218.696 106.544C218.696 108.496 219.288 110.032 220.472 111.152C221.688 112.24 223.368 112.784 225.512 112.784ZM279.138 76.256C280.738 74.144 282.658 72.464 284.898 71.216C287.17 69.968 289.602 69.344 292.194 69.344C296.578 69.344 300.146 70.448 302.898 72.656C305.682 74.864 307.73 77.984 309.042 82.016C310.354 86.048 311.01 90.832 311.01 96.368C311.01 101.616 310.226 106.304 308.658 110.432C307.122 114.528 304.834 117.76 301.794 120.128C298.754 122.464 295.026 123.632 290.61 123.632C285.266 123.632 281.058 121.552 277.986 117.392L277.41 122H263.97V50.768L279.138 49.184V76.256ZM286.626 112.592C289.314 112.592 291.442 111.36 293.01 108.896C294.578 106.4 295.362 102.288 295.362 96.56C295.362 92.336 295.026 89.072 294.354 86.768C293.714 84.432 292.786 82.816 291.57 81.92C290.386 80.992 288.994 80.528 287.394 80.528C285.698 80.528 284.178 81.056 282.834 82.112C281.49 83.168 280.258 84.608 279.138 86.432V107.936C280.098 109.44 281.17 110.592 282.354 111.392C283.538 112.192 284.962 112.592 286.626 112.592Z" fill="#FCF9F3"/>
<rect width="223.953" height="180" transform="translate(342)" fill="#FCF9F3"/>
<path d="M515.953 83.1471C515.955 85.8264 514.894 88.3994 513.004 90.298L461.083 142.485C460.143 143.432 459.023 144.185 457.789 144.698C456.558 145.211 455.235 145.475 453.9 145.475C452.565 145.475 451.241 145.211 450.01 144.698C448.776 144.185 447.657 143.432 446.715 142.485L394.962 90.298C393.07 88.4078 392.004 85.8432 392 83.1681V63.3132C392 61.9827 392.266 60.6661 392.775 59.4377C393.287 58.2093 394.034 57.0941 394.977 56.1553L413.609 37.5079C414.55 36.5635 415.666 35.8164 416.897 35.3057C418.127 34.795 419.444 34.532 420.776 34.532C422.108 34.532 423.426 34.795 424.655 35.3057C425.885 35.8164 427.002 36.5635 427.943 37.5079L454.001 63.5944L480.019 37.5009C480.959 36.5565 482.075 35.8094 483.305 35.2987C484.535 34.788 485.853 34.525 487.185 34.525C488.515 34.525 489.833 34.788 491.063 35.2987C492.293 35.8094 493.409 36.5565 494.35 37.5009L512.983 56.1484C513.925 57.0872 514.672 58.2037 515.181 59.4321C515.69 60.6591 515.953 61.9771 515.953 63.3062V83.1471Z" fill="#FF002E"/>
<rect width="400" height="180" transform="translate(565.953)" fill="black"/>
<path d="M627.321 53.792C632.089 53.792 636.137 54.432 639.465 55.712C642.825 56.96 645.897 58.736 648.681 61.04L640.953 70.352C639.129 68.848 637.113 67.664 634.905 66.8C632.697 65.904 630.297 65.456 627.705 65.456C624.921 65.456 622.377 66.256 620.073 67.856C617.769 69.424 615.929 71.92 614.553 75.344C613.177 78.736 612.489 83.152 612.489 88.592C612.489 93.936 613.145 98.304 614.457 101.696C615.801 105.056 617.641 107.536 619.977 109.136C622.313 110.704 624.985 111.488 627.993 111.488C631.321 111.488 634.089 110.864 636.297 109.616C638.505 108.368 640.537 107.008 642.393 105.536L649.545 114.656C647.049 117.12 643.977 119.232 640.329 120.992C636.681 122.752 632.281 123.632 627.129 123.632C621.113 123.632 615.769 122.304 611.097 119.648C606.457 116.96 602.809 113.024 600.153 107.84C597.529 102.624 596.217 96.208 596.217 88.592C596.217 81.168 597.577 74.864 600.297 69.68C603.049 64.496 606.777 60.56 611.481 57.872C616.185 55.152 621.465 53.792 627.321 53.792ZM679.316 69.344C684.564 69.344 689.028 70.464 692.708 72.704C696.388 74.944 699.204 78.096 701.156 82.16C703.108 86.192 704.084 90.928 704.084 96.368C704.084 102.032 703.092 106.912 701.108 111.008C699.156 115.072 696.34 118.192 692.66 120.368C688.98 122.544 684.532 123.632 679.316 123.632C674.132 123.632 669.684 122.56 665.972 120.416C662.292 118.272 659.46 115.168 657.476 111.104C655.524 107.04 654.548 102.16 654.548 96.464C654.548 91.056 655.524 86.32 657.476 82.256C659.46 78.192 662.292 75.024 665.972 72.752C669.684 70.48 674.132 69.344 679.316 69.344ZM679.316 80.528C676.212 80.528 673.908 81.808 672.404 84.368C670.932 86.896 670.196 90.928 670.196 96.464C670.196 102.096 670.932 106.176 672.404 108.704C673.908 111.232 676.212 112.496 679.316 112.496C682.42 112.496 684.708 111.232 686.18 108.704C687.684 106.176 688.436 102.064 688.436 96.368C688.436 90.864 687.684 86.848 686.18 84.32C684.708 81.792 682.42 80.528 679.316 80.528ZM743.79 49.184L758.958 50.768V122H745.518L744.75 116.384C743.342 118.368 741.47 120.08 739.134 121.52C736.798 122.928 733.966 123.632 730.638 123.632C726.414 123.632 722.91 122.496 720.126 120.224C717.374 117.952 715.31 114.784 713.934 110.72C712.59 106.624 711.918 101.84 711.918 96.368C711.918 91.12 712.734 86.464 714.366 82.4C715.998 78.336 718.334 75.152 721.374 72.848C724.414 70.512 728.03 69.344 732.222 69.344C734.494 69.344 736.606 69.744 738.558 70.544C740.51 71.344 742.254 72.512 743.79 74.048V49.184ZM736.302 80.432C733.678 80.432 731.566 81.68 729.966 84.176C728.366 86.64 727.566 90.736 727.566 96.464C727.566 100.656 727.902 103.92 728.574 106.256C729.246 108.56 730.174 110.176 731.358 111.104C732.542 112.032 733.902 112.496 735.438 112.496C737.134 112.496 738.67 111.968 740.046 110.912C741.454 109.856 742.702 108.416 743.79 106.592V84.608C742.734 83.296 741.614 82.272 740.43 81.536C739.246 80.8 737.87 80.432 736.302 80.432ZM803.513 71.024V111.632H816.473V122H773.897V111.632H788.345V81.392H774.377V71.024H803.513ZM794.345 44.336C796.969 44.336 799.113 45.152 800.777 46.784C802.441 48.416 803.273 50.448 803.273 52.88C803.273 55.312 802.441 57.36 800.777 59.024C799.113 60.656 796.969 61.472 794.345 61.472C791.689 61.472 789.513 60.656 787.817 59.024C786.153 57.36 785.321 55.312 785.321 52.88C785.321 50.448 786.153 48.416 787.817 46.784C789.513 45.152 791.689 44.336 794.345 44.336ZM829.923 122V71.024H843.171L844.227 76.928C846.499 74.368 848.899 72.464 851.427 71.216C853.955 69.968 856.835 69.344 860.067 69.344C864.419 69.344 867.843 70.672 870.339 73.328C872.835 75.984 874.083 79.728 874.083 84.56V122H858.915V88.928C858.915 86.848 858.771 85.2 858.483 83.984C858.195 82.736 857.683 81.856 856.947 81.344C856.243 80.8 855.267 80.528 854.019 80.528C852.963 80.528 851.923 80.768 850.899 81.248C849.907 81.696 848.931 82.352 847.971 83.216C847.011 84.08 846.051 85.12 845.091 86.336V122H829.923ZM932.75 62.864L936.302 74C934.51 74.704 932.414 75.216 930.014 75.536C927.614 75.856 924.814 76.016 921.614 76.016C924.814 77.392 927.246 79.104 928.91 81.152C930.606 83.168 931.454 85.824 931.454 89.12C931.454 92.416 930.574 95.36 928.814 97.952C927.054 100.512 924.558 102.528 921.326 104C918.094 105.472 914.27 106.208 909.854 106.208C908.766 106.208 907.742 106.16 906.782 106.064C905.822 105.968 904.878 105.824 903.95 105.632C903.406 105.92 902.99 106.336 902.702 106.88C902.414 107.424 902.27 107.984 902.27 108.56C902.27 109.36 902.59 110.08 903.23 110.72C903.902 111.36 905.454 111.68 907.886 111.68H916.238C920.206 111.68 923.63 112.32 926.51 113.6C929.422 114.88 931.678 116.624 933.278 118.832C934.878 121.04 935.678 123.568 935.678 126.416C935.678 131.632 933.39 135.744 928.814 138.752C924.238 141.76 917.438 143.264 908.414 143.264C901.886 143.264 896.83 142.592 893.246 141.248C889.694 139.936 887.214 138.048 885.806 135.584C884.43 133.152 883.742 130.256 883.742 126.896H897.182C897.182 128.368 897.47 129.568 898.046 130.496C898.654 131.456 899.79 132.16 901.454 132.608C903.15 133.056 905.598 133.28 908.798 133.28C912.03 133.28 914.494 133.024 916.19 132.512C917.886 132 919.038 131.296 919.646 130.4C920.286 129.536 920.606 128.56 920.606 127.472C920.606 125.968 920.014 124.752 918.83 123.824C917.646 122.896 915.774 122.432 913.214 122.432H905.102C899.598 122.432 895.598 121.424 893.102 119.408C890.606 117.36 889.358 114.976 889.358 112.256C889.358 110.368 889.854 108.576 890.846 106.88C891.87 105.184 893.294 103.76 895.118 102.608C891.854 100.88 889.518 98.848 888.11 96.512C886.702 94.144 885.998 91.312 885.998 88.016C885.998 84.176 886.974 80.88 888.926 78.128C890.878 75.344 893.566 73.2 896.99 71.696C900.446 70.192 904.382 69.44 908.798 69.44C912.606 69.504 915.918 69.248 918.734 68.672C921.55 68.064 924.078 67.248 926.318 66.224C928.558 65.168 930.702 64.048 932.75 62.864ZM909.182 79.28C906.782 79.28 904.878 80.048 903.47 81.584C902.062 83.088 901.358 85.168 901.358 87.824C901.358 90.64 902.078 92.8 903.518 94.304C904.958 95.808 906.846 96.56 909.182 96.56C911.71 96.56 913.63 95.808 914.942 94.304C916.286 92.8 916.958 90.576 916.958 87.632C916.958 84.784 916.302 82.688 914.99 81.344C913.678 79.968 911.742 79.28 909.182 79.28Z" fill="#FCF9F3"/>
</g>
<defs>
<clipPath id="clip0_3_18">
<rect width="965.953" height="180" fill="white"/>
</clipPath>
</defs>
</svg>
