<svg width="966" height="231" viewBox="0 0 966 231" fill="none" xmlns="http://www.w3.org/2000/svg">
<g clip-path="url(#clip0_3_18)">
<rect width="342" height="180" transform="translate(0 25.475)" fill="black"/>
<path d="M80.904 101.155C80.904 104.323 80.312 107.091 79.128 109.459C77.944 111.827 76.344 113.827 74.328 115.459C72.312 117.091 70.056 118.403 67.56 119.395L84.984 147.475H67.176L52.776 122.035H48.312V147.475H32.568V80.947H53.496C62.552 80.947 69.384 82.595 73.992 85.891C78.6 89.187 80.904 94.275 80.904 101.155ZM64.68 101.155C64.68 97.955 63.736 95.635 61.848 94.195C59.992 92.723 57.224 91.987 53.544 91.987H48.312V111.235H54.168C57.592 111.235 60.2 110.435 61.992 108.835C63.784 107.235 64.68 104.675 64.68 101.155ZM134.195 132.787C134.195 134.707 134.451 136.099 134.963 136.963C135.507 137.827 136.371 138.483 137.555 138.931L134.435 148.915C131.427 148.627 128.883 147.971 126.803 146.947C124.755 145.891 123.139 144.307 121.955 142.195C120.003 144.531 117.507 146.275 114.467 147.427C111.427 148.547 108.323 149.107 105.155 149.107C99.9065 149.107 95.7145 147.619 92.5785 144.643C89.4745 141.635 87.9225 137.779 87.9225 133.075C87.9225 127.539 90.0825 123.267 94.4025 120.259C98.7545 117.251 104.867 115.747 112.739 115.747H119.603V113.827C119.603 111.171 118.739 109.203 117.011 107.923C115.315 106.643 112.819 106.003 109.523 106.003C107.891 106.003 105.795 106.243 103.235 106.723C100.675 107.171 98.1145 107.827 95.5545 108.691L92.0505 98.611C95.3465 97.363 98.7705 96.419 102.323 95.779C105.907 95.139 109.107 94.819 111.923 94.819C119.507 94.819 125.107 96.371 128.723 99.475C132.371 102.547 134.195 106.995 134.195 112.819V132.787ZM110.387 138.259C112.019 138.259 113.731 137.779 115.523 136.819C117.315 135.827 118.675 134.435 119.603 132.643V124.387H115.859C111.635 124.387 108.531 125.043 106.547 126.355C104.563 127.635 103.571 129.523 103.571 132.019C103.571 133.971 104.163 135.507 105.347 136.627C106.563 137.715 108.243 138.259 110.387 138.259ZM187.485 96.499V132.691C187.485 140.051 186.109 146.099 183.357 150.835C180.637 155.603 176.573 159.379 171.165 162.163C165.789 164.979 159.133 167.171 151.197 168.739L148.797 157.171C153.949 155.987 158.269 154.515 161.757 152.755C165.245 150.995 167.869 148.611 169.629 145.603C171.421 142.563 172.317 138.579 172.317 133.651V106.867H153.981V96.499H187.485ZM177.645 69.811C180.269 69.811 182.413 70.627 184.077 72.259C185.741 73.891 186.573 75.923 186.573 78.355C186.573 80.787 185.741 82.835 184.077 84.499C182.413 86.131 180.269 86.947 177.645 86.947C174.989 86.947 172.813 86.131 171.117 84.499C169.453 82.835 168.621 80.787 168.621 78.355C168.621 75.923 169.453 73.891 171.117 72.259C172.813 70.627 174.989 69.811 177.645 69.811ZM249.32 132.787C249.32 134.707 249.576 136.099 250.088 136.963C250.632 137.827 251.496 138.483 252.68 138.931L249.56 148.915C246.552 148.627 244.008 147.971 241.928 146.947C239.88 145.891 238.264 144.307 237.08 142.195C235.128 144.531 232.632 146.275 229.592 147.427C226.552 148.547 223.448 149.107 220.28 149.107C215.032 149.107 210.84 147.619 207.704 144.643C204.6 141.635 203.048 137.779 203.048 133.075C203.048 127.539 205.208 123.267 209.528 120.259C213.88 117.251 219.992 115.747 227.864 115.747H234.728V113.827C234.728 111.171 233.864 109.203 232.136 107.923C230.44 106.643 227.944 106.003 224.648 106.003C223.016 106.003 220.92 106.243 218.36 106.723C215.8 107.171 213.24 107.827 210.68 108.691L207.176 98.611C210.472 97.363 213.896 96.419 217.448 95.779C221.032 95.139 224.232 94.819 227.048 94.819C234.632 94.819 240.232 96.371 243.848 99.475C247.496 102.547 249.32 106.995 249.32 112.819V132.787ZM225.512 138.259C227.144 138.259 228.856 137.779 230.648 136.819C232.44 135.827 233.8 134.435 234.728 132.643V124.387H230.984C226.76 124.387 223.656 125.043 221.672 126.355C219.688 127.635 218.696 129.523 218.696 132.019C218.696 133.971 219.288 135.507 220.472 136.627C221.688 137.715 223.368 138.259 225.512 138.259ZM279.138 101.731C280.738 99.619 282.658 97.939 284.898 96.691C287.17 95.443 289.602 94.819 292.194 94.819C296.578 94.819 300.146 95.923 302.898 98.131C305.682 100.339 307.73 103.459 309.042 107.491C310.354 111.523 311.01 116.307 311.01 121.843C311.01 127.091 310.226 131.779 308.658 135.907C307.122 140.003 304.834 143.235 301.794 145.603C298.754 147.939 295.026 149.107 290.61 149.107C285.266 149.107 281.058 147.027 277.986 142.867L277.41 147.475H263.97V76.243L279.138 74.659V101.731ZM286.626 138.067C289.314 138.067 291.442 136.835 293.01 134.371C294.578 131.875 295.362 127.763 295.362 122.035C295.362 117.811 295.026 114.547 294.354 112.243C293.714 109.907 292.786 108.291 291.57 107.395C290.386 106.467 288.994 106.003 287.394 106.003C285.698 106.003 284.178 106.531 282.834 107.587C281.49 108.643 280.258 110.083 279.138 111.907V133.411C280.098 134.915 281.17 136.067 282.354 136.867C283.538 137.667 284.962 138.067 286.626 138.067Z" fill="#FCF9F3"/>
<rect width="223.953" height="230.95" transform="translate(342)" fill="#FCF9F3"/>
<path d="M515.953 108.622C515.955 111.301 514.894 113.874 513.004 115.773L461.083 167.96C460.143 168.907 459.023 169.66 457.789 170.173C456.558 170.686 455.235 170.95 453.9 170.95C452.565 170.95 451.241 170.686 450.01 170.173C448.776 169.66 447.657 168.907 446.715 167.96L394.962 115.773C393.07 113.883 392.004 111.318 392 108.643V88.7882C392 87.4577 392.266 86.1411 392.775 84.9127C393.287 83.6843 394.034 82.5691 394.977 81.6303L413.609 62.9829C414.55 62.0385 415.666 61.2914 416.897 60.7807C418.127 60.27 419.444 60.007 420.776 60.007C422.108 60.007 423.426 60.27 424.655 60.7807C425.885 61.2914 427.002 62.0385 427.943 62.9829L454.001 89.0694L480.019 62.9759C480.959 62.0315 482.075 61.2844 483.305 60.7737C484.535 60.263 485.853 60 487.185 60C488.515 60 489.833 60.263 491.063 60.7737C492.293 61.2844 493.409 62.0315 494.35 62.9759L512.983 81.6234C513.925 82.5622 514.672 83.6787 515.181 84.9071C515.69 86.1341 515.953 87.4521 515.953 88.7812V108.622Z" fill="#FF002E"/>
<rect width="400" height="180" transform="translate(565.953 25.475)" fill="black"/>
<path d="M627.321 79.267C632.089 79.267 636.137 79.907 639.465 81.187C642.825 82.435 645.897 84.211 648.681 86.515L640.953 95.827C639.129 94.323 637.113 93.139 634.905 92.275C632.697 91.379 630.297 90.931 627.705 90.931C624.921 90.931 622.377 91.731 620.073 93.331C617.769 94.899 615.929 97.395 614.553 100.819C613.177 104.211 612.489 108.627 612.489 114.067C612.489 119.411 613.145 123.779 614.457 127.171C615.801 130.531 617.641 133.011 619.977 134.611C622.313 136.179 624.985 136.963 627.993 136.963C631.321 136.963 634.089 136.339 636.297 135.091C638.505 133.843 640.537 132.483 642.393 131.011L649.545 140.131C647.049 142.595 643.977 144.707 640.329 146.467C636.681 148.227 632.281 149.107 627.129 149.107C621.113 149.107 615.769 147.779 611.097 145.123C606.457 142.435 602.809 138.499 600.153 133.315C597.529 128.099 596.217 121.683 596.217 114.067C596.217 106.643 597.577 100.339 600.297 95.155C603.049 89.971 606.777 86.035 611.481 83.347C616.185 80.627 621.465 79.267 627.321 79.267ZM679.316 94.819C684.564 94.819 689.028 95.939 692.708 98.179C696.388 100.419 699.204 103.571 701.156 107.635C703.108 111.667 704.084 116.403 704.084 121.843C704.084 127.507 703.092 132.387 701.108 136.483C699.156 140.547 696.34 143.667 692.66 145.843C688.98 148.019 684.532 149.107 679.316 149.107C674.132 149.107 669.684 148.035 665.972 145.891C662.292 143.747 659.46 140.643 657.476 136.579C655.524 132.515 654.548 127.635 654.548 121.939C654.548 116.531 655.524 111.795 657.476 107.731C659.46 103.667 662.292 100.499 665.972 98.227C669.684 95.955 674.132 94.819 679.316 94.819ZM679.316 106.003C676.212 106.003 673.908 107.283 672.404 109.843C670.932 112.371 670.196 116.403 670.196 121.939C670.196 127.571 670.932 131.651 672.404 134.179C673.908 136.707 676.212 137.971 679.316 137.971C682.42 137.971 684.708 136.707 686.18 134.179C687.684 131.651 688.436 127.539 688.436 121.843C688.436 116.339 687.684 112.323 686.18 109.795C684.708 107.267 682.42 106.003 679.316 106.003ZM743.79 74.659L758.958 76.243V147.475H745.518L744.75 141.859C743.342 143.843 741.47 145.555 739.134 146.995C736.798 148.403 733.966 149.107 730.638 149.107C726.414 149.107 722.91 147.971 720.126 145.699C717.374 143.427 715.31 140.259 713.934 136.195C712.59 132.099 711.918 127.315 711.918 121.843C711.918 116.595 712.734 111.939 714.366 107.875C715.998 103.811 718.334 100.627 721.374 98.323C724.414 95.987 728.03 94.819 732.222 94.819C734.494 94.819 736.606 95.219 738.558 96.019C740.51 96.819 742.254 97.987 743.79 99.523V74.659ZM736.302 105.907C733.678 105.907 731.566 107.155 729.966 109.651C728.366 112.115 727.566 116.211 727.566 121.939C727.566 126.131 727.902 129.395 728.574 131.731C729.246 134.035 730.174 135.651 731.358 136.579C732.542 137.507 733.902 137.971 735.438 137.971C737.134 137.971 738.67 137.443 740.046 136.387C741.454 135.331 742.702 133.891 743.79 132.067V110.083C742.734 108.771 741.614 107.747 740.43 107.011C739.246 106.275 737.87 105.907 736.302 105.907ZM803.513 96.499V137.107H816.473V147.475H773.897V137.107H788.345V106.867H774.377V96.499H803.513ZM794.345 69.811C796.969 69.811 799.113 70.627 800.777 72.259C802.441 73.891 803.273 75.923 803.273 78.355C803.273 80.787 802.441 82.835 800.777 84.499C799.113 86.131 796.969 86.947 794.345 86.947C791.689 86.947 789.513 86.131 787.817 84.499C786.153 82.835 785.321 80.787 785.321 78.355C785.321 75.923 786.153 73.891 787.817 72.259C789.513 70.627 791.689 69.811 794.345 69.811ZM829.923 147.475V96.499H843.171L844.227 102.403C846.499 99.843 848.899 97.939 851.427 96.691C853.955 95.443 856.835 94.819 860.067 94.819C864.419 94.819 867.843 96.147 870.339 98.803C872.835 101.459 874.083 105.203 874.083 110.035V147.475H858.915V114.403C858.915 112.323 858.771 110.675 858.483 109.459C858.195 108.211 857.683 107.331 856.947 106.819C856.243 106.275 855.267 106.003 854.019 106.003C852.963 106.003 851.923 106.243 850.899 106.723C849.907 107.171 848.931 107.827 847.971 108.691C847.011 109.555 846.051 110.595 845.091 111.811V147.475H829.923ZM932.75 88.339L936.302 99.475C934.51 100.179 932.414 100.691 930.014 101.011C927.614 101.331 924.814 101.491 921.614 101.491C924.814 102.867 927.246 104.579 928.91 106.627C930.606 108.643 931.454 111.299 931.454 114.595C931.454 117.891 930.574 120.835 928.814 123.427C927.054 125.987 924.558 128.003 921.326 129.475C918.094 130.947 914.27 131.683 909.854 131.683C908.766 131.683 907.742 131.635 906.782 131.539C905.822 131.443 904.878 131.299 903.95 131.107C903.406 131.395 902.99 131.811 902.702 132.355C902.414 132.899 902.27 133.459 902.27 134.035C902.27 134.835 902.59 135.555 903.23 136.195C903.902 136.835 905.454 137.155 907.886 137.155H916.238C920.206 137.155 923.63 137.795 926.51 139.075C929.422 140.355 931.678 142.099 933.278 144.307C934.878 146.515 935.678 149.043 935.678 151.891C935.678 157.107 933.39 161.219 928.814 164.227C924.238 167.235 917.438 168.739 908.414 168.739C901.886 168.739 896.83 168.067 893.246 166.723C889.694 165.411 887.214 163.523 885.806 161.059C884.43 158.627 883.742 155.731 883.742 152.371H897.182C897.182 153.843 897.47 155.043 898.046 155.971C898.654 156.931 899.79 157.635 901.454 158.083C903.15 158.531 905.598 158.755 908.798 158.755C912.03 158.755 914.494 158.499 916.19 157.987C917.886 157.475 919.038 156.771 919.646 155.875C920.286 155.011 920.606 154.035 920.606 152.947C920.606 151.443 920.014 150.227 918.83 149.299C917.646 148.371 915.774 147.907 913.214 147.907H905.102C899.598 147.907 895.598 146.899 893.102 144.883C890.606 142.835 889.358 140.451 889.358 137.731C889.358 135.843 889.854 134.051 890.846 132.355C891.87 130.659 893.294 129.235 895.118 128.083C891.854 126.355 889.518 124.323 888.11 121.987C886.702 119.619 885.998 116.787 885.998 113.491C885.998 109.651 886.974 106.355 888.926 103.603C890.878 100.819 893.566 98.675 896.99 97.171C900.446 95.667 904.382 94.915 908.798 94.915C912.606 94.979 915.918 94.723 918.734 94.147C921.55 93.539 924.078 92.723 926.318 91.699C928.558 90.643 930.702 89.523 932.75 88.339ZM909.182 104.755C906.782 104.755 904.878 105.523 903.47 107.059C902.062 108.563 901.358 110.643 901.358 113.299C901.358 116.115 902.078 118.275 903.518 119.779C904.958 121.283 906.846 122.035 909.182 122.035C911.71 122.035 913.63 121.283 914.942 119.779C916.286 118.275 916.958 116.051 916.958 113.107C916.958 110.259 916.302 108.163 914.99 106.819C913.678 105.443 911.742 104.755 909.182 104.755Z" fill="#FCF9F3"/>
</g>
<defs>
<clipPath id="clip0_3_18">
<rect width="965.953" height="230.95" fill="white"/>
</clipPath>
</defs>
</svg>
