<svg width="100%" height="100%" id="svg" viewBox="0 0 1440 400" xmlns="http://www.w3.org/2000/svg" class="transition duration-300 ease-in-out delay-150"><path d="M 0,400 C 0,400 0,100 0,100 C 153.86666666666667,117.19999999999999 307.73333333333335,134.39999999999998 473,130 C 638.2666666666667,125.60000000000001 814.9333333333334,99.6 978,91 C 1141.0666666666666,82.4 1290.5333333333333,91.2 1440,100 C 1440,100 1440,400 1440,400 Z" stroke="none" stroke-width="0" fill="#fcb90066" class="transition-all duration-300 ease-in-out delay-150 path-0"></path><path d="M 0,400 C 0,400 0,200 0,200 C 109.19999999999999,218.93333333333334 218.39999999999998,237.86666666666665 397,231 C 575.6,224.13333333333335 823.5999999999999,191.46666666666664 1009,182 C 1194.4,172.53333333333336 1317.2,186.26666666666668 1440,200 C 1440,200 1440,400 1440,400 Z" stroke="none" stroke-width="0" fill="#fcb90088" class="transition-all duration-300 ease-in-out delay-150 path-1"></path><path d="M 0,400 C 0,400 0,300 0,300 C 180.93333333333334,278 361.8666666666667,256 534,264 C 706.1333333333333,272 869.4666666666667,310 1019,321 C 1168.5333333333333,332 1304.2666666666667,316 1440,300 C 1440,300 1440,400 1440,400 Z" stroke="none" stroke-width="0" fill="#fcb900ff" class="transition-all duration-300 ease-in-out delay-150 path-2"></path></svg>
