<?xml version="1.0" standalone="no"?>
<svg xmlns:xlink="http://www.w3.org/1999/xlink" id="wave" style="transform:rotate(0deg); transition: 0.3s" viewBox="0 0 1440 470" version="1.1" xmlns="http://www.w3.org/2000/svg"><defs><linearGradient id="sw-gradient-0" x1="0" x2="0" y1="1" y2="0"><stop stop-color="rgba(243, 106, 62, 1)" offset="0%"/><stop stop-color="rgba(255, 179, 11, 1)" offset="100%"/></linearGradient></defs><path style="transform:translate(0, 0px); opacity:1" fill="url(#sw-gradient-0)" d="M0,141L80,156.7C160,172,320,204,480,250.7C640,298,800,360,960,321.2C1120,282,1280,141,1440,101.8C1600,63,1760,125,1920,195.8C2080,266,2240,345,2400,313.3C2560,282,2720,141,2880,141C3040,141,3200,282,3360,344.7C3520,407,3680,392,3840,368.2C4000,345,4160,313,4320,258.5C4480,204,4640,125,4800,133.2C4960,141,5120,235,5280,266.3C5440,298,5600,266,5760,211.5C5920,157,6080,78,6240,70.5C6400,63,6560,125,6720,148.8C6880,172,7040,157,7200,195.8C7360,235,7520,329,7680,368.2C7840,407,8000,392,8160,391.7C8320,392,8480,407,8640,383.8C8800,360,8960,298,9120,250.7C9280,204,9440,172,9600,180.2C9760,188,9920,235,10080,211.5C10240,188,10400,94,10560,109.7C10720,125,10880,251,11040,258.5C11200,266,11360,157,11440,101.8L11520,47L11520,470L11440,470C11360,470,11200,470,11040,470C10880,470,10720,470,10560,470C10400,470,10240,470,10080,470C9920,470,9760,470,9600,470C9440,470,9280,470,9120,470C8960,470,8800,470,8640,470C8480,470,8320,470,8160,470C8000,470,7840,470,7680,470C7520,470,7360,470,7200,470C7040,470,6880,470,6720,470C6560,470,6400,470,6240,470C6080,470,5920,470,5760,470C5600,470,5440,470,5280,470C5120,470,4960,470,4800,470C4640,470,4480,470,4320,470C4160,470,4000,470,3840,470C3680,470,3520,470,3360,470C3200,470,3040,470,2880,470C2720,470,2560,470,2400,470C2240,470,2080,470,1920,470C1760,470,1600,470,1440,470C1280,470,1120,470,960,470C800,470,640,470,480,470C320,470,160,470,80,470L0,470Z"/></svg>