<?xml version="1.0" standalone="no"?>
<svg xmlns:xlink="http://www.w3.org/1999/xlink" id="wave" style="transform:rotate(180deg); transition: 0.3s" viewBox="0 0 1440 170" version="1.1" xmlns="http://www.w3.org/2000/svg"><defs><linearGradient id="sw-gradient-0" x1="0" x2="0" y1="1" y2="0"><stop stop-color="rgba(243, 106, 62, 1)" offset="0%"/><stop stop-color="rgba(255, 179, 11, 1)" offset="100%"/></linearGradient></defs><path style="transform:translate(0, 0px); opacity:1" fill="url(#sw-gradient-0)" d="M0,34L60,48.2C120,62,240,91,360,104.8C480,119,600,119,720,102C840,85,960,51,1080,42.5C1200,34,1320,51,1440,53.8C1560,57,1680,45,1800,59.5C1920,74,2040,113,2160,121.8C2280,130,2400,108,2520,90.7C2640,74,2760,62,2880,70.8C3000,79,3120,108,3240,124.7C3360,142,3480,147,3600,124.7C3720,102,3840,51,3960,48.2C4080,45,4200,91,4320,110.5C4440,130,4560,125,4680,116.2C4800,108,4920,96,5040,79.3C5160,62,5280,40,5400,25.5C5520,11,5640,6,5760,28.3C5880,51,6000,102,6120,116.2C6240,130,6360,108,6480,82.2C6600,57,6720,28,6840,28.3C6960,28,7080,57,7200,59.5C7320,62,7440,40,7560,39.7C7680,40,7800,62,7920,76.5C8040,91,8160,96,8280,93.5C8400,91,8520,79,8580,73.7L8640,68L8640,170L8580,170C8520,170,8400,170,8280,170C8160,170,8040,170,7920,170C7800,170,7680,170,7560,170C7440,170,7320,170,7200,170C7080,170,6960,170,6840,170C6720,170,6600,170,6480,170C6360,170,6240,170,6120,170C6000,170,5880,170,5760,170C5640,170,5520,170,5400,170C5280,170,5160,170,5040,170C4920,170,4800,170,4680,170C4560,170,4440,170,4320,170C4200,170,4080,170,3960,170C3840,170,3720,170,3600,170C3480,170,3360,170,3240,170C3120,170,3000,170,2880,170C2760,170,2640,170,2520,170C2400,170,2280,170,2160,170C2040,170,1920,170,1800,170C1680,170,1560,170,1440,170C1320,170,1200,170,1080,170C960,170,840,170,720,170C600,170,480,170,360,170C240,170,120,170,60,170L0,170Z"/><defs><linearGradient id="sw-gradient-1" x1="0" x2="0" y1="1" y2="0"><stop stop-color="rgba(255, 101.831, 52.638, 1)" offset="0%"/><stop stop-color="rgba(255, 175.574, 0, 1)" offset="100%"/></linearGradient></defs><path style="transform:translate(0, 50px); opacity:0.9" fill="url(#sw-gradient-1)" d="M0,34L60,42.5C120,51,240,68,360,76.5C480,85,600,85,720,90.7C840,96,960,108,1080,107.7C1200,108,1320,96,1440,96.3C1560,96,1680,108,1800,119C1920,130,2040,142,2160,136C2280,130,2400,108,2520,102C2640,96,2760,108,2880,110.5C3000,113,3120,108,3240,99.2C3360,91,3480,79,3600,85C3720,91,3840,113,3960,110.5C4080,108,4200,79,4320,62.3C4440,45,4560,40,4680,53.8C4800,68,4920,102,5040,104.8C5160,108,5280,79,5400,68C5520,57,5640,62,5760,59.5C5880,57,6000,45,6120,53.8C6240,62,6360,91,6480,102C6600,113,6720,108,6840,87.8C6960,68,7080,34,7200,28.3C7320,23,7440,45,7560,59.5C7680,74,7800,79,7920,85C8040,91,8160,96,8280,102C8400,108,8520,113,8580,116.2L8640,119L8640,170L8580,170C8520,170,8400,170,8280,170C8160,170,8040,170,7920,170C7800,170,7680,170,7560,170C7440,170,7320,170,7200,170C7080,170,6960,170,6840,170C6720,170,6600,170,6480,170C6360,170,6240,170,6120,170C6000,170,5880,170,5760,170C5640,170,5520,170,5400,170C5280,170,5160,170,5040,170C4920,170,4800,170,4680,170C4560,170,4440,170,4320,170C4200,170,4080,170,3960,170C3840,170,3720,170,3600,170C3480,170,3360,170,3240,170C3120,170,3000,170,2880,170C2760,170,2640,170,2520,170C2400,170,2280,170,2160,170C2040,170,1920,170,1800,170C1680,170,1560,170,1440,170C1320,170,1200,170,1080,170C960,170,840,170,720,170C600,170,480,170,360,170C240,170,120,170,60,170L0,170Z"/></svg>