<svg id="visual" viewBox="0 0 960 540" width="960" height="540" xmlns="http://www.w3.org/2000/svg" xmlns:xlink="http://www.w3.org/1999/xlink" version="1.1"><rect x="0" y="0" width="960" height="540" fill="#001220"></rect><path d="M0 305L26.7 307.8C53.3 310.7 106.7 316.3 160 314.7C213.3 313 266.7 304 320 302.3C373.3 300.7 426.7 306.3 480 310.8C533.3 315.3 586.7 318.7 640 317.5C693.3 316.3 746.7 310.7 800 307.5C853.3 304.3 906.7 303.7 933.3 303.3L960 303L960 541L933.3 541C906.7 541 853.3 541 800 541C746.7 541 693.3 541 640 541C586.7 541 533.3 541 480 541C426.7 541 373.3 541 320 541C266.7 541 213.3 541 160 541C106.7 541 53.3 541 26.7 541L0 541Z" fill="#fa7268"></path><path d="M0 325L26.7 326.5C53.3 328 106.7 331 160 332.3C213.3 333.7 266.7 333.3 320 330.7C373.3 328 426.7 323 480 324.3C533.3 325.7 586.7 333.3 640 337.7C693.3 342 746.7 343 800 341.5C853.3 340 906.7 336 933.3 334L960 332L960 541L933.3 541C906.7 541 853.3 541 800 541C746.7 541 693.3 541 640 541C586.7 541 533.3 541 480 541C426.7 541 373.3 541 320 541C266.7 541 213.3 541 160 541C106.7 541 53.3 541 26.7 541L0 541Z" fill="#f56967"></path><path d="M0 372L26.7 370.3C53.3 368.7 106.7 365.3 160 364.5C213.3 363.7 266.7 365.3 320 363.5C373.3 361.7 426.7 356.3 480 357.2C533.3 358 586.7 365 640 366.5C693.3 368 746.7 364 800 364C853.3 364 906.7 368 933.3 370L960 372L960 541L933.3 541C906.7 541 853.3 541 800 541C746.7 541 693.3 541 640 541C586.7 541 533.3 541 480 541C426.7 541 373.3 541 320 541C266.7 541 213.3 541 160 541C106.7 541 53.3 541 26.7 541L0 541Z" fill="#ef5f67"></path><path d="M0 377L26.7 376.5C53.3 376 106.7 375 160 377.7C213.3 380.3 266.7 386.7 320 387.2C373.3 387.7 426.7 382.3 480 378.5C533.3 374.7 586.7 372.3 640 373.7C693.3 375 746.7 380 800 381.5C853.3 383 906.7 381 933.3 380L960 379L960 541L933.3 541C906.7 541 853.3 541 800 541C746.7 541 693.3 541 640 541C586.7 541 533.3 541 480 541C426.7 541 373.3 541 320 541C266.7 541 213.3 541 160 541C106.7 541 53.3 541 26.7 541L0 541Z" fill="#e95667"></path><path d="M0 419L26.7 417.8C53.3 416.7 106.7 414.3 160 411.8C213.3 409.3 266.7 406.7 320 406.8C373.3 407 426.7 410 480 411.3C533.3 412.7 586.7 412.3 640 410.8C693.3 409.3 746.7 406.7 800 407C853.3 407.3 906.7 410.7 933.3 412.3L960 414L960 541L933.3 541C906.7 541 853.3 541 800 541C746.7 541 693.3 541 640 541C586.7 541 533.3 541 480 541C426.7 541 373.3 541 320 541C266.7 541 213.3 541 160 541C106.7 541 53.3 541 26.7 541L0 541Z" fill="#e34c67"></path><path d="M0 437L26.7 438.3C53.3 439.7 106.7 442.3 160 442.2C213.3 442 266.7 439 320 438.8C373.3 438.7 426.7 441.3 480 442.5C533.3 443.7 586.7 443.3 640 442.7C693.3 442 746.7 441 800 438.8C853.3 436.7 906.7 433.3 933.3 431.7L960 430L960 541L933.3 541C906.7 541 853.3 541 800 541C746.7 541 693.3 541 640 541C586.7 541 533.3 541 480 541C426.7 541 373.3 541 320 541C266.7 541 213.3 541 160 541C106.7 541 53.3 541 26.7 541L0 541Z" fill="#dc4267"></path><path d="M0 470L26.7 469.3C53.3 468.7 106.7 467.3 160 464.5C213.3 461.7 266.7 457.3 320 458.2C373.3 459 426.7 465 480 464.7C533.3 464.3 586.7 457.7 640 454.7C693.3 451.7 746.7 452.3 800 455.2C853.3 458 906.7 463 933.3 465.5L960 468L960 541L933.3 541C906.7 541 853.3 541 800 541C746.7 541 693.3 541 640 541C586.7 541 533.3 541 480 541C426.7 541 373.3 541 320 541C266.7 541 213.3 541 160 541C106.7 541 53.3 541 26.7 541L0 541Z" fill="#d53867"></path><path d="M0 479L26.7 479.2C53.3 479.3 106.7 479.7 160 480.5C213.3 481.3 266.7 482.7 320 482.7C373.3 482.7 426.7 481.3 480 481.5C533.3 481.7 586.7 483.3 640 485.2C693.3 487 746.7 489 800 488.8C853.3 488.7 906.7 486.3 933.3 485.2L960 484L960 541L933.3 541C906.7 541 853.3 541 800 541C746.7 541 693.3 541 640 541C586.7 541 533.3 541 480 541C426.7 541 373.3 541 320 541C266.7 541 213.3 541 160 541C106.7 541 53.3 541 26.7 541L0 541Z" fill="#ce2e68"></path><path d="M0 522L26.7 519.5C53.3 517 106.7 512 160 509.8C213.3 507.7 266.7 508.3 320 508.7C373.3 509 426.7 509 480 511C533.3 513 586.7 517 640 517.8C693.3 518.7 746.7 516.3 800 516.2C853.3 516 906.7 518 933.3 519L960 520L960 541L933.3 541C906.7 541 853.3 541 800 541C746.7 541 693.3 541 640 541C586.7 541 533.3 541 480 541C426.7 541 373.3 541 320 541C266.7 541 213.3 541 160 541C106.7 541 53.3 541 26.7 541L0 541Z" fill="#c62368"></path></svg>