<?xml version="1.0" standalone="no"?>
<svg xmlns:xlink="http://www.w3.org/1999/xlink" id="wave" style="transform:rotate(0deg); transition: 0.3s" viewBox="0 0 1440 490" version="1.1" xmlns="http://www.w3.org/2000/svg"><defs><linearGradient id="sw-gradient-0" x1="0" x2="0" y1="1" y2="0"><stop stop-color="rgba(243, 106, 62, 1)" offset="0%"/><stop stop-color="rgba(255, 179, 11, 1)" offset="100%"/></linearGradient></defs><path style="transform:translate(0, 0px); opacity:1" fill="url(#sw-gradient-0)" d="M0,245L80,261.3C160,278,320,310,480,294C640,278,800,212,960,171.5C1120,131,1280,114,1440,155.2C1600,196,1760,294,1920,334.8C2080,376,2240,359,2400,359.3C2560,359,2720,376,2880,318.5C3040,261,3200,131,3360,89.8C3520,49,3680,98,3840,130.7C4000,163,4160,180,4320,228.7C4480,278,4640,359,4800,392C4960,425,5120,408,5280,392C5440,376,5600,359,5760,302.2C5920,245,6080,147,6240,147C6400,147,6560,245,6720,236.8C6880,229,7040,114,7200,122.5C7360,131,7520,261,7680,285.8C7840,310,8000,229,8160,196C8320,163,8480,180,8640,220.5C8800,261,8960,327,9120,318.5C9280,310,9440,229,9600,196C9760,163,9920,180,10080,187.8C10240,196,10400,196,10560,228.7C10720,261,10880,327,11040,334.8C11200,343,11360,294,11440,269.5L11520,245L11520,490L11440,490C11360,490,11200,490,11040,490C10880,490,10720,490,10560,490C10400,490,10240,490,10080,490C9920,490,9760,490,9600,490C9440,490,9280,490,9120,490C8960,490,8800,490,8640,490C8480,490,8320,490,8160,490C8000,490,7840,490,7680,490C7520,490,7360,490,7200,490C7040,490,6880,490,6720,490C6560,490,6400,490,6240,490C6080,490,5920,490,5760,490C5600,490,5440,490,5280,490C5120,490,4960,490,4800,490C4640,490,4480,490,4320,490C4160,490,4000,490,3840,490C3680,490,3520,490,3360,490C3200,490,3040,490,2880,490C2720,490,2560,490,2400,490C2240,490,2080,490,1920,490C1760,490,1600,490,1440,490C1280,490,1120,490,960,490C800,490,640,490,480,490C320,490,160,490,80,490L0,490Z"/></svg>