<svg id="visual" viewBox="0 0 960 540" width="960" height="540" xmlns="http://www.w3.org/2000/svg" xmlns:xlink="http://www.w3.org/1999/xlink" version="1.1"><rect x="0" y="0" width="960" height="540" fill="#001220"></rect><path d="M0 208L26.7 211.8C53.3 215.7 106.7 223.3 160 223.8C213.3 224.3 266.7 217.7 320 213C373.3 208.3 426.7 205.7 480 204.5C533.3 203.3 586.7 203.7 640 204C693.3 204.3 746.7 204.7 800 210.5C853.3 216.3 906.7 227.7 933.3 233.3L960 239L960 0L933.3 0C906.7 0 853.3 0 800 0C746.7 0 693.3 0 640 0C586.7 0 533.3 0 480 0C426.7 0 373.3 0 320 0C266.7 0 213.3 0 160 0C106.7 0 53.3 0 26.7 0L0 0Z" fill="#fa7268"></path><path d="M0 198L26.7 199.5C53.3 201 106.7 204 160 203.7C213.3 203.3 266.7 199.7 320 197C373.3 194.3 426.7 192.7 480 194.7C533.3 196.7 586.7 202.3 640 202.2C693.3 202 746.7 196 800 191.3C853.3 186.7 906.7 183.3 933.3 181.7L960 180L960 0L933.3 0C906.7 0 853.3 0 800 0C746.7 0 693.3 0 640 0C586.7 0 533.3 0 480 0C426.7 0 373.3 0 320 0C266.7 0 213.3 0 160 0C106.7 0 53.3 0 26.7 0L0 0Z" fill="#f56967"></path><path d="M0 172L26.7 171.8C53.3 171.7 106.7 171.3 160 168.7C213.3 166 266.7 161 320 162.2C373.3 163.3 426.7 170.7 480 176C533.3 181.3 586.7 184.7 640 182.3C693.3 180 746.7 172 800 169.3C853.3 166.7 906.7 169.3 933.3 170.7L960 172L960 0L933.3 0C906.7 0 853.3 0 800 0C746.7 0 693.3 0 640 0C586.7 0 533.3 0 480 0C426.7 0 373.3 0 320 0C266.7 0 213.3 0 160 0C106.7 0 53.3 0 26.7 0L0 0Z" fill="#ef5f67"></path><path d="M0 161L26.7 157.5C53.3 154 106.7 147 160 145.7C213.3 144.3 266.7 148.7 320 149.3C373.3 150 426.7 147 480 143.5C533.3 140 586.7 136 640 138.2C693.3 140.3 746.7 148.7 800 150.5C853.3 152.3 906.7 147.7 933.3 145.3L960 143L960 0L933.3 0C906.7 0 853.3 0 800 0C746.7 0 693.3 0 640 0C586.7 0 533.3 0 480 0C426.7 0 373.3 0 320 0C266.7 0 213.3 0 160 0C106.7 0 53.3 0 26.7 0L0 0Z" fill="#e95667"></path><path d="M0 118L26.7 120C53.3 122 106.7 126 160 125C213.3 124 266.7 118 320 117.5C373.3 117 426.7 122 480 124.8C533.3 127.7 586.7 128.3 640 125.7C693.3 123 746.7 117 800 114.7C853.3 112.3 906.7 113.7 933.3 114.3L960 115L960 0L933.3 0C906.7 0 853.3 0 800 0C746.7 0 693.3 0 640 0C586.7 0 533.3 0 480 0C426.7 0 373.3 0 320 0C266.7 0 213.3 0 160 0C106.7 0 53.3 0 26.7 0L0 0Z" fill="#e34c67"></path><path d="M0 103L26.7 104C53.3 105 106.7 107 160 106.5C213.3 106 266.7 103 320 101.3C373.3 99.7 426.7 99.3 480 99.7C533.3 100 586.7 101 640 99.2C693.3 97.3 746.7 92.7 800 94.2C853.3 95.7 906.7 103.3 933.3 107.2L960 111L960 0L933.3 0C906.7 0 853.3 0 800 0C746.7 0 693.3 0 640 0C586.7 0 533.3 0 480 0C426.7 0 373.3 0 320 0C266.7 0 213.3 0 160 0C106.7 0 53.3 0 26.7 0L0 0Z" fill="#dc4267"></path><path d="M0 80L26.7 77.8C53.3 75.7 106.7 71.3 160 70.7C213.3 70 266.7 73 320 73.3C373.3 73.7 426.7 71.3 480 69.8C533.3 68.3 586.7 67.7 640 68.2C693.3 68.7 746.7 70.3 800 71.5C853.3 72.7 906.7 73.3 933.3 73.7L960 74L960 0L933.3 0C906.7 0 853.3 0 800 0C746.7 0 693.3 0 640 0C586.7 0 533.3 0 480 0C426.7 0 373.3 0 320 0C266.7 0 213.3 0 160 0C106.7 0 53.3 0 26.7 0L0 0Z" fill="#d53867"></path><path d="M0 52L26.7 50.5C53.3 49 106.7 46 160 44C213.3 42 266.7 41 320 41.5C373.3 42 426.7 44 480 46.2C533.3 48.3 586.7 50.7 640 51.5C693.3 52.3 746.7 51.7 800 51.3C853.3 51 906.7 51 933.3 51L960 51L960 0L933.3 0C906.7 0 853.3 0 800 0C746.7 0 693.3 0 640 0C586.7 0 533.3 0 480 0C426.7 0 373.3 0 320 0C266.7 0 213.3 0 160 0C106.7 0 53.3 0 26.7 0L0 0Z" fill="#ce2e68"></path><path d="M0 33L26.7 33C53.3 33 106.7 33 160 32.5C213.3 32 266.7 31 320 31.3C373.3 31.7 426.7 33.3 480 31C533.3 28.7 586.7 22.3 640 20.5C693.3 18.7 746.7 21.3 800 24.7C853.3 28 906.7 32 933.3 34L960 36L960 0L933.3 0C906.7 0 853.3 0 800 0C746.7 0 693.3 0 640 0C586.7 0 533.3 0 480 0C426.7 0 373.3 0 320 0C266.7 0 213.3 0 160 0C106.7 0 53.3 0 26.7 0L0 0Z" fill="#c62368"></path></svg>